<?xml version="1.0" encoding="UTF-8"?>
<svg class="animated" version="1.1" viewBox="0 0 500 500" xmlns="http://www.w3.org/2000/svg">
<style>svg#freepik_stories-add-notes:not(.animated) .animable {opacity: 0;}svg#freepik_stories-add-notes.animated #freepik--Floor--inject-50 {animation: 1s 1 forwards cubic-bezier(.36,-0.01,.5,1.38) lightSpeedLeft;animation-delay: 0s;}svg#freepik_stories-add-notes.animated #freepik--Shadows--inject-50 {animation: 1s 1 forwards cubic-bezier(.36,-0.01,.5,1.38) slideUp;animation-delay: 0s;}svg#freepik_stories-add-notes.animated #freepik--Window--inject-50 {animation: 1s 1 forwards cubic-bezier(.36,-0.01,.5,1.38) fadeIn;animation-delay: 0s;}svg#freepik_stories-add-notes.animated #freepik--Table--inject-50 {animation: 1s 1 forwards cubic-bezier(.36,-0.01,.5,1.38) slideUp;animation-delay: 0s;}svg#freepik_stories-add-notes.animated #freepik--Plant--inject-50 {animation: 1s 1 forwards cubic-bezier(.36,-0.01,.5,1.38) zoomIn;animation-delay: 0s;}svg#freepik_stories-add-notes.animated #freepik--Pictures--inject-50 {animation: 1s 1 forwards cubic-bezier(.36,-0.01,.5,1.38) zoomIn;animation-delay: 0s;}svg#freepik_stories-add-notes.animated #freepik--Notes--inject-50 {animation: 1s 1 forwards cubic-bezier(.36,-0.01,.5,1.38) slideDown,1.5s Infinite  linear floating;animation-delay: 0s,1s;}svg#freepik_stories-add-notes.animated #freepik--Character--inject-50 {animation: 1s 1 forwards ease-in lightSpeedRight;animation-delay: 0s;}            @keyframes lightSpeedLeft {              from {                transform: translate3d(-50%, 0, 0) skewX(20deg);                opacity: 0;              }              60% {                transform: skewX(-10deg);                opacity: 1;              }              80% {                transform: skewX(2deg);              }              to {                opacity: 1;                transform: translate3d(0, 0, 0);              }            }                    @keyframes slideUp {                0% {                    opacity: 0;                    transform: translateY(30px);                }                100% {                    opacity: 1;                    transform: inherit;                }            }                    @keyframes fadeIn {                0% {                    opacity: 0;                }                100% {                    opacity: 1;                }            }                    @keyframes zoomIn {                0% {                    opacity: 0;                    transform: scale(0.5);                }                100% {                    opacity: 1;                    transform: scale(1);                }            }                    @keyframes slideDown {                0% {                    opacity: 0;                    transform: translateY(-30px);                }                100% {                    opacity: 1;                    transform: translateY(0);                }            }                    @keyframes floating {                0% {                    opacity: 1;                    transform: translateY(0px);                }                50% {                    transform: translateY(-10px);                }                100% {                    opacity: 1;                    transform: translateY(0px);                }            }                    @keyframes lightSpeedRight {              from {                transform: translate3d(50%, 0, 0) skewX(-20deg);                opacity: 0;              }              60% {                transform: skewX(10deg);                opacity: 1;              }              80% {                transform: skewX(-2deg);              }              to {                opacity: 1;                transform: translate3d(0, 0, 0);              }            }</style>
<g class="animable" style="transform-origin:249.314px 354.568px">
<path class="animable" d="m403.68 264.86c-85.82-49.55-224.49-49.55-309.74 0s-84.81 129.87 1 179.42 224.49 49.54 309.75 0 84.8-129.88-1.01-179.42z" fill="#f5f5f5" style="transform-origin:249.314px 354.568px"/>
</g>
<g class="animable" style="transform-origin:252.003px 348.755px">
<path class="animable" d="m233.92 339.83-25-14.49-14.82 8.55-16.84-9.76-123.32 71.2a1.15 1.15 0 0 0 0 2l22.69 13.15a4.66 4.66 0 0 0 4.64 0l12.49-7.22 14.52 8.42a4.63 4.63 0 0 0 4.64 0l121-69.86a1.16 1.16 0 0 0 0-1.99z" opacity=".1" style="transform-origin:143.921px 368.217px"/>
<polygon class="animable" points="211.96 324.21 220.65 329.23 293.58 287.12 284.89 282.1" opacity=".1" style="transform-origin:252.77px 305.665px"/>
<path class="animable" d="m407.66 341.89-44.31-25.58a2 2 0 0 1 0-3.4l39.06-22.69a2 2 0 0 1 2 0l45.3 26.15a2 2 0 0 1 0 3.39l-38.11 22.13a3.93 3.93 0 0 1-3.94 0z" opacity=".1" style="transform-origin:406.526px 316.186px"/>
<path class="animable" d="M362,364c-20.37-11.76-53.29-11.76-73.52,0s-20.14,30.83.23,42.59,53.29,11.76,73.53,0S382.4,375.75,362,364Z" opacity=".1" style="transform-origin:325.365px 385.295px"/>
</g>
<g class="animable" style="transform-origin:381.085px 140.88px">
<polygon class="animable" points="375.85 88.95 375.56 192.36 381.31 195.68 381.61 92.27" fill="#e0e0e0" style="transform-origin:378.585px 142.315px"/>
<polygon class="animable" points="381.61 92.27 381.61 92.27 381.31 195.68 386.32 192.77 386.59 95.15" fill="#f0f0f0" style="transform-origin:383.95px 143.975px"/>
<rect class="animable" x="378.73" y="87.29" height="6.64" fill="#e0e0e0" style="transform-origin:378.73px 90.61px;transform:rotate(-60deg)"/>
<polygon class="animable" points="381.6 96.92 381.61 92.27 375.85 88.95 375.84 93.59 381.6 96.92" opacity=".2" style="transform-origin:378.725px 92.935px"/>
<polygon class="animable" points="381.6 96.92 385.63 94.59 381.61 92.27 381.61 92.27" opacity=".2" style="transform-origin:383.615px 94.595px"/>
<rect class="animable" x="378.73" y="87.29" height="6.64" fill="#e0e0e0" style="transform-origin:378.73px 90.61px;transform:rotate(-60deg)"/>
<polygon class="animable" points="306.61 48.97 311.61 46.06 311.32 149.47 306.32 152.38" fill="#f0f0f0" style="transform-origin:308.965px 99.22px"/>
<polygon class="animable" points="306.32 152.38 311.32 149.47 455.57 232.75 450.57 235.66" fill="#f5f5f5" style="transform-origin:380.945px 192.565px"/>
<path class="animable" d="M300.88,39,456.63,129l-.33,116.63L300.54,155.67ZM450.57,235.66l.29-103.41L306.61,49l-.29,103.41,144.25,83.28" fill="#e0e0e0" style="transform-origin:378.585px 142.315px"/>
<polygon class="animable" points="300.88 39.04 305.88 36.13 461.63 126.06 456.63 128.96" fill="#f5f5f5" style="transform-origin:381.255px 82.545px"/>
<polygon class="animable" points="456.63 128.96 461.63 126.06 461.3 242.69 456.3 245.59" fill="#f0f0f0" style="transform-origin:458.965px 185.825px"/>
</g>
<g class="animable" style="transform-origin:406.415px 287.19px">
<polygon class="animable" points="371.33 312.01 367.45 314.26 367.46 309.78" fill="#e6e6e6" style="transform-origin:369.39px 312.02px"/>
<polygon class="animable" points="367.56 288.08 367.56 288.03 367.56 288.03 367.56 288.03" fill="#787878" style="transform-origin:367.56px 288.055px"/>
<rect class="animable" x="386.41" y="277.15" height="43.54" fill="#cfcfcf" style="transform-origin:386.41px 298.92px"/>
<polygon class="animable" points="367.62 266.27 405.33 288.04 405.33 288.04" fill="#cfcfcf" style="transform-origin:386.475px 277.155px"/>
<path class="animable" d="M371.33,312l33.91,19.58v4.48l4,2.33.15-52.68-45.86-26.48-.15,52.69,4,2.33v-4.48Zm33.95-6.88-37.71-21.77.05-17.09L405.33,288h0Zm-.06,21.76-37.71-21.77.05-17V288h0l37.71,21.78h0Z" fill="#ebebeb" style="transform-origin:386.385px 298.81px"/>
<polygon class="animable" points="367.51 305.12 367.56 288.08 367.56 288.03 405.27 309.81 405.27 309.81 405.22 326.89" fill="#f5f5f5" style="transform-origin:386.39px 307.46px"/>
<polygon class="animable" points="367.57 283.36 367.62 266.27 405.33 288.04 405.33 288.04 405.28 305.13" fill="#f5f5f5" style="transform-origin:386.45px 285.7px"/>
<polygon class="animable" points="409.42 285.72 449.45 262.45 449.3 315.14 409.27 338.4" fill="#e6e6e6" style="transform-origin:429.36px 300.425px"/>
<polygon class="animable" points="409.42 285.72 363.56 259.24 403.59 235.98 449.45 262.45" fill="#f5f5f5" style="transform-origin:406.505px 260.85px"/>
</g>
<g class="animable" style="transform-origin:406.111px 242.285px">
<path class="animable" d="m418.81 241.75-12.77 0.38-12.78-0.38c-0.55 8.63 1.14 17.42 3.46 21.72a5.76 5.76 0 0 0 2.53 2.58 15 15 0 0 0 13.6 0 5.7 5.7 0 0 0 2.53-2.64c2.31-4.33 3.98-13.07 3.43-21.66z" fill="#37474f" style="transform-origin:406.035px 254.715px"/>
<path class="animable" d="M415,236.52c5,2.89,5,7.58.06,10.47S402,249.87,397,247s-5-7.58-.06-10.47S410,233.63,415,236.52Z" fill="#455a64" style="transform-origin:406px 241.756px"/>
<path class="animable" d="m413.06 237.67c3.91 2.26 3.93 5.91 0.05 8.16a15.51 15.51 0 0 1-14.1 0c-3.9-2.25-3.92-5.9 0-8.16a15.55 15.55 0 0 1 14.05 0z" fill="#263238" style="transform-origin:406.042px 241.759px"/>
<path class="animable" d="M405,242.11a8.42,8.42,0,0,0,7.49,1.71,7.86,7.86,0,0,0,5.25-5.31,15.35,15.35,0,0,1-4.1-2.85,10.56,10.56,0,0,1,5.81.21,5.93,5.93,0,0,0,.44-5.54,10.14,10.14,0,0,0-6.93-.48,9.2,9.2,0,0,1,7-2.21,26.75,26.75,0,0,0-1.68-10.75c-4.76.24-9.38,2.3-10.94,3.77a17.52,17.52,0,0,0,.53,5.06,4.09,4.09,0,0,1-2.21-3.27c-3,.75-4.26,2.23-4.72,3.37a12.54,12.54,0,0,0,2.82,5.72c-2.8-.85-3.93-4-3.93-4C397,234.09,397.57,241.48,405,242.11Z" fill="#2dbdc3" style="transform-origin:409.317px 230.485px"/>
<path class="animable" d="M405,242.11a8.42,8.42,0,0,0,7.49,1.71,7.86,7.86,0,0,0,5.25-5.31,15.35,15.35,0,0,1-4.1-2.85,10.56,10.56,0,0,1,5.81.21,5.93,5.93,0,0,0,.44-5.54,10.14,10.14,0,0,0-6.93-.48,9.2,9.2,0,0,1,7-2.21,26.75,26.75,0,0,0-1.68-10.75c-4.76.24-9.38,2.3-10.94,3.77a17.52,17.52,0,0,0,.53,5.06,4.09,4.09,0,0,1-2.21-3.27c-3,.75-4.26,2.23-4.72,3.37a12.54,12.54,0,0,0,2.82,5.72c-2.8-.85-3.93-4-3.93-4C397,234.09,397.57,241.48,405,242.11Z" opacity=".2" style="transform-origin:409.317px 230.485px"/>
<path class="animable" d="M404.8,242.82h0a.27.27,0,0,1-.25-.3c.45-6,3.89-15.94,12.1-24.13a.28.28,0,1,1,.39.39c-8.1,8.08-11.5,17.87-11.94,23.79A.27.27,0,0,1,404.8,242.82Z" fill="#f5f5f5" style="transform-origin:410.854px 230.546px"/>
<path class="animable" d="M407.05,245.33a7.82,7.82,0,0,1-12.23-3.21,13.31,13.31,0,0,0,3.71-2.52,10.44,10.44,0,0,0-5.49.16,5.1,5.1,0,0,1-.77-4.94,10.12,10.12,0,0,1,6.54-.39,9.7,9.7,0,0,0-6.79-2,21.89,21.89,0,0,1,.92-9.6c4.54.27,9,2.15,10.59,3.48a14.33,14.33,0,0,1-.18,4.5,3.3,3.3,0,0,0,1.88-2.89c2.84.69,4.13,2,4.63,3a9.89,9.89,0,0,1-2.29,5,5.62,5.62,0,0,0,3.44-3.49C414,238.27,413.92,244.78,407.05,245.33Z" fill="#2dbdc3" style="transform-origin:402.366px 234.962px"/>
<path class="animable" d="M407.24,246a.27.27,0,0,1-.27-.24c-.79-5.23-4.59-13.93-12.75-21.19a.28.28,0,1,1,.37-.41c8.26,7.36,12.12,16.19,12.92,21.52a.29.29,0,0,1-.23.32Z" fill="#fff" style="transform-origin:400.801px 235.027px"/>
</g>
<g class="animable" style="transform-origin:128.94px 111.67px">
<polygon class="animable" points="115.54 103.81 75.99 126.64 76.07 156.88 115.63 134.04" fill="none" style="transform-origin:95.81px 130.345px"/>
<polygon class="animable" points="115.54 103.81 115.63 134.04 119.29 136.17 119.19 101.7" fill="#f0f0f0" style="transform-origin:117.415px 118.935px"/>
<polygon class="animable" points="76.07 156.88 76.08 161.11 119.29 136.17 115.63 134.04" fill="#f5f5f5" style="transform-origin:97.68px 147.575px"/>
<path class="animable" d="M123.61,94.06,71.54,124.12l.13,44.64,52.06-30.06ZM76.08,161.11v-4.23L76,126.64l39.55-22.84,3.65-2.1.1,34.47Z" fill="#e0e0e0" style="transform-origin:97.635px 131.41px"/>
<polygon class="animable" points="123.61 94.06 119.94 91.93 67.88 121.99 71.54 124.12" fill="#f5f5f5" style="transform-origin:95.745px 108.025px"/>
<polygon class="animable" points="67.88 121.99 68.01 166.63 71.67 168.76 71.54 124.12" fill="#f0f0f0" style="transform-origin:69.775px 145.375px"/>
<polygon class="animable" points="181.78 66.46 142.23 89.29 142.31 119.53 181.87 96.69" fill="none" style="transform-origin:162.05px 92.995px"/>
<polygon class="animable" points="181.78 66.46 181.87 96.69 185.53 98.82 185.44 64.35" fill="#f0f0f0" style="transform-origin:183.655px 81.585px"/>
<polygon class="animable" points="142.31 119.53 142.33 123.76 185.53 98.82 181.87 96.69" fill="#f5f5f5" style="transform-origin:163.92px 110.225px"/>
<path class="animable" d="M189.85,56.71,137.79,86.77l.12,44.64L190,101.35Zm-47.52,67.05,0-4.23-.08-30.24,39.55-22.83,3.66-2.11.09,34.47Z" fill="#e0e0e0" style="transform-origin:163.895px 94.06px"/>
<polygon class="animable" points="189.85 56.71 186.19 54.58 134.12 84.64 137.79 86.77" fill="#f5f5f5" style="transform-origin:161.985px 70.675px"/>
<polygon class="animable" points="134.12 84.64 134.25 129.28 137.91 131.41 137.79 86.77" fill="#f0f0f0" style="transform-origin:136.015px 108.025px"/>
<polygon class="animable" points="102.97 115.28 113.76 123.78 113.79 132.08 77.91 152.79 77.88 144.49 84.72 130.91 90.86 135.68 88.69 142.42 91.84 136.43" fill="#e0e0e0" style="transform-origin:95.835px 134.035px"/>
<path class="animable" d="m91.19 119.47c1.69-1 3.06-0.2 3.07 1.74a6.71 6.71 0 0 1-3.05 5.28c-1.69 1-3.06 0.2-3.07-1.74a6.73 6.73 0 0 1 3.05-5.28z" fill="#e0e0e0" style="transform-origin:91.2px 122.98px"/>
<polygon class="animable" points="169.22 77.94 180 86.43 180.03 94.73 144.15 115.44 144.12 107.14 150.96 93.56 157.1 98.33 154.93 105.08 158.08 99.09" fill="#e0e0e0" style="transform-origin:162.075px 96.69px"/>
<path class="animable" d="m157.43 82.12c1.69-1 3.06-0.19 3.07 1.75a6.74 6.74 0 0 1-3.05 5.28c-1.69 1-3.06 0.19-3.07-1.75a6.73 6.73 0 0 1 3.05-5.28z" fill="#e0e0e0" style="transform-origin:157.44px 85.635px"/>
</g>
<g class="animable" style="transform-origin:174.365px 268.335px">
<polygon class="animable" points="284.89 128.44 211.96 170.54 212.26 274.63 285.19 232.52" fill="#2dbdc3" style="transform-origin:248.575px 201.535px"/>
<polygon class="animable" points="288.99 130.84 216.06 172.94 216.36 277.03 289.29 234.92" fill="#2dbdc3" style="transform-origin:252.675px 203.935px"/>
<polygon class="animable" points="288.99 130.84 216.06 172.94 216.36 277.03 289.29 234.92" fill="#fff" opacity=".4" style="transform-origin:252.675px 203.935px"/>
<polygon class="animable" points="293.58 133.46 220.65 175.57 220.94 279.65 293.87 237.55" fill="#2dbdc3" style="transform-origin:257.26px 206.555px"/>
<polygon class="animable" points="293.58 133.46 220.65 175.57 220.94 279.65 293.87 237.55" fill="#fff" opacity=".6" style="transform-origin:257.26px 206.555px"/>
<path class="animable" d="M256,140.66c7.07-4.08,12.83-.8,12.85,7.33s-5.7,18-12.77,22.12-12.84.81-12.86-7.32S249,144.75,256,140.66Z" fill="#ebebeb" style="transform-origin:256.035px 155.395px"/>
<path class="animable" d="M256.59,150.36c.53-.31,1-.06,1,.56v3.23l2.82-1.62c.54-.31,1-.07,1,.55a2.18,2.18,0,0,1-1,1.69l-2.81,1.62v3.23a2.15,2.15,0,0,1-1,1.69c-.54.31-1,.06-1-.56v-3.23l-2.81,1.62c-.55.31-1,.06-1-.56a2.15,2.15,0,0,1,1-1.68l2.81-1.62V152A2.11,2.11,0,0,1,256.59,150.36Z" fill="#2dbdc3" style="transform-origin:256.6px 155.835px"/>
<polygon class="animable" points="199.07 166.46 78.46 236.09 78.95 408.23 199.56 338.59" fill="#2dbdc3" style="transform-origin:139.01px 287.345px"/>
<polygon class="animable" points="54.86 222.38 55.35 394.51 78.95 408.23 78.46 236.09" fill="#2dbdc3" style="transform-origin:66.905px 315.305px"/>
<polygon class="animable" points="199.07 166.46 175.47 152.74 54.86 222.38 78.46 236.09" fill="#2dbdc3" style="transform-origin:126.965px 194.415px"/>
<polygon class="animable" points="199.07 166.46 78.46 236.09 78.95 408.23 199.56 338.59" fill="#fff" opacity=".2" style="transform-origin:139.01px 287.345px"/>
<polygon class="animable" points="199.07 166.46 175.47 152.74 54.86 222.38 78.46 236.09" fill="#fff" opacity=".5" style="transform-origin:126.965px 194.415px"/>
<path class="animable" d="M78.46,236.09c0,78.76,8.81,138.32,15.5,163.47l105.6-61-.49-172.13Z" opacity=".2" style="transform-origin:139.01px 282.995px"/>
<path class="animable" d="m233.23 331-120.61 69.59c-9.29-11.17-34.16-65.62-34.16-164.5l120.61-69.63c0 93.54 21.74 147.25 34.16 164.54z" fill="#2dbdc3" style="transform-origin:155.845px 283.525px"/>
<path class="animable" d="m233.23 331-120.61 69.59c-9.29-11.17-34.16-65.62-34.16-164.5l120.61-69.63c0 93.54 21.74 147.25 34.16 164.54z" fill="#fff" opacity=".6" style="transform-origin:155.845px 283.525px"/>
<path class="animable" d="m182.3 248.83-77.57 44.79q0.24 2 0.48 4l77.72-44.87c-0.21-1.29-0.43-2.6-0.63-3.92z" fill="#2dbdc3" style="transform-origin:143.83px 273.225px"/>
<path class="animable" d="m186.07 269.67-78.32 45.22q0.34 2 0.69 3.9l78.45-45.29c-0.28-1.27-0.55-2.5-0.82-3.83z" fill="#2dbdc3" style="transform-origin:147.32px 294.23px"/>
<path class="animable" d="M184.06,259.32l-77.95,45c.19,1.34.38,2.66.58,4l78.09-45.08Z" fill="#2dbdc3" style="transform-origin:145.445px 283.82px"/>
<path class="animable" d="m180.76 238.21-77.15 44.55c0.12 1.37 0.25 2.73 0.39 4.07l77.31-44.63c-0.19-1.33-0.37-2.66-0.55-3.99z" fill="#2dbdc3" style="transform-origin:142.46px 262.52px"/>
<path class="animable" d="m178.33 216.6-76.23 44c0.06 1.41 0.13 2.8 0.2 4.19l76.42-44.12q-0.21-2.03-0.39-4.07z" fill="#2dbdc3" style="transform-origin:140.41px 240.695px"/>
<path class="animable" d="m179.44 227.47-76.71 44.28q0.13 2.08 0.3 4.14l76.88-44.39c-0.16-1.35-0.32-2.69-0.47-4.03z" fill="#2dbdc3" style="transform-origin:141.32px 251.68px"/>
<path class="animable" d="m197 309.4-79.71 46c0.39 1.25 0.77 2.46 1.16 3.63l79.85-46.03c-0.45-1.22-0.88-2.41-1.3-3.6z" fill="#2dbdc3" style="transform-origin:157.795px 334.215px"/>
<path class="animable" d="m188.34 279.87-78.66 45.41c0.26 1.31 0.52 2.59 0.79 3.85l78.79-45.49c-0.26-1.25-0.62-2.51-0.92-3.77z" fill="#2dbdc3" style="transform-origin:149.47px 304.5px"/>
<path class="animable" d="m193.76 299.75-79.35 45.82c0.34 1.26 0.69 2.5 1 3.71l79.48-45.89c-0.36-1.21-0.75-2.39-1.13-3.64z" fill="#2dbdc3" style="transform-origin:154.65px 324.515px"/>
<path class="animable" d="m190.89 289.9-79 45.61c0.3 1.29 0.6 2.55 0.91 3.78l79.13-45.68c-0.35-1.23-0.7-2.46-1.04-3.71z" fill="#2dbdc3" style="transform-origin:151.91px 314.595px"/>
<g class="animable" opacity=".1" style="transform-origin:150.2px 287.815px">
<path class="animable" d="m182.3 248.83-77.57 44.79q0.24 2 0.48 4l77.72-44.87c-0.21-1.29-0.43-2.6-0.63-3.92z" style="transform-origin:143.83px 273.225px"/>
<path class="animable" d="m186.07 269.67-78.32 45.22q0.34 2 0.69 3.9l78.45-45.29c-0.28-1.27-0.55-2.5-0.82-3.83z" style="transform-origin:147.32px 294.23px"/>
<path class="animable" d="M184.06,259.32l-77.95,45c.19,1.34.38,2.66.58,4l78.09-45.08Z" style="transform-origin:145.445px 283.82px"/>
<path class="animable" d="m180.76 238.21-77.15 44.55c0.12 1.37 0.25 2.73 0.39 4.07l77.31-44.63c-0.19-1.33-0.37-2.66-0.55-3.99z" style="transform-origin:142.46px 262.52px"/>
<path class="animable" d="m178.33 216.6-76.23 44c0.06 1.41 0.13 2.8 0.2 4.19l76.42-44.12q-0.21-2.03-0.39-4.07z" style="transform-origin:140.41px 240.695px"/>
<path class="animable" d="m179.44 227.47-76.71 44.28q0.13 2.08 0.3 4.14l76.88-44.39c-0.16-1.35-0.32-2.69-0.47-4.03z" style="transform-origin:141.32px 251.68px"/>
<path class="animable" d="m197 309.4-79.71 46c0.39 1.25 0.77 2.46 1.16 3.63l79.85-46.03c-0.45-1.22-0.88-2.41-1.3-3.6z" style="transform-origin:157.795px 334.215px"/>
<path class="animable" d="m188.34 279.87-78.66 45.41c0.26 1.31 0.52 2.59 0.79 3.85l78.79-45.49c-0.26-1.25-0.62-2.51-0.92-3.77z" style="transform-origin:149.47px 304.5px"/>
<path class="animable" d="m193.76 299.75-79.35 45.82c0.34 1.26 0.69 2.5 1 3.71l79.48-45.89c-0.36-1.21-0.75-2.39-1.13-3.64z" style="transform-origin:154.65px 324.515px"/>
<path class="animable" d="m190.89 289.9-79 45.61c0.3 1.29 0.6 2.55 0.91 3.78l79.13-45.68c-0.35-1.23-0.7-2.46-1.04-3.71z" style="transform-origin:151.91px 314.595px"/>
</g>
<g class="animable" fill="#fff" opacity=".3" style="transform-origin:150.2px 287.815px">
<path class="animable" d="m182.3 248.83-77.57 44.79q0.24 2 0.48 4l77.72-44.87c-0.21-1.29-0.43-2.6-0.63-3.92z" style="transform-origin:143.83px 273.225px"/>
<path class="animable" d="m186.07 269.67-78.32 45.22q0.34 2 0.69 3.9l78.45-45.29c-0.28-1.27-0.55-2.5-0.82-3.83z" style="transform-origin:147.32px 294.23px"/>
<path class="animable" d="M184.06,259.32l-77.95,45c.19,1.34.38,2.66.58,4l78.09-45.08Z" style="transform-origin:145.445px 283.82px"/>
<path class="animable" d="m180.76 238.21-77.15 44.55c0.12 1.37 0.25 2.73 0.39 4.07l77.31-44.63c-0.19-1.33-0.37-2.66-0.55-3.99z" style="transform-origin:142.46px 262.52px"/>
<path class="animable" d="m178.33 216.6-76.23 44c0.06 1.41 0.13 2.8 0.2 4.19l76.42-44.12q-0.21-2.03-0.39-4.07z" style="transform-origin:140.41px 240.695px"/>
<path class="animable" d="m179.44 227.47-76.71 44.28q0.13 2.08 0.3 4.14l76.88-44.39c-0.16-1.35-0.32-2.69-0.47-4.03z" style="transform-origin:141.32px 251.68px"/>
<path class="animable" d="m197 309.4-79.71 46c0.39 1.25 0.77 2.46 1.16 3.63l79.85-46.03c-0.45-1.22-0.88-2.41-1.3-3.6z" style="transform-origin:157.795px 334.215px"/>
<path class="animable" d="m188.34 279.87-78.66 45.41c0.26 1.31 0.52 2.59 0.79 3.85l78.79-45.49c-0.26-1.25-0.62-2.51-0.92-3.77z" style="transform-origin:149.47px 304.5px"/>
<path class="animable" d="m193.76 299.75-79.35 45.82c0.34 1.26 0.69 2.5 1 3.71l79.48-45.89c-0.36-1.21-0.75-2.39-1.13-3.64z" style="transform-origin:154.65px 324.515px"/>
<path class="animable" d="m190.89 289.9-79 45.61c0.3 1.29 0.6 2.55 0.91 3.78l79.13-45.68c-0.35-1.23-0.7-2.46-1.04-3.71z" style="transform-origin:151.91px 314.595px"/>
</g>
</g>
<g class="animable" style="transform-origin:310.012px 280.007px">
<path class="animable" d="M328.39,397.76c-.69,1.44-2.86,2.77-5.24,3.16s-4.8-.12-7.19-.46a47.53,47.53,0,0,0-10.73-.27,57.36,57.36,0,0,1-6.67.47,10.58,10.58,0,0,1-6.28-2,6.41,6.41,0,0,1-2.35-4,6,6,0,0,0,2.35,5.4,10.59,10.59,0,0,0,6.28,2,55.26,55.26,0,0,0,6.67-.48,47.53,47.53,0,0,1,10.73.28c2.39.33,5,1,7.36.62s4.55-1.72,5.24-3.15Z" fill="#263238" style="transform-origin:309.229px 398.627px"/>
<path class="animable" d="m302.35 393.52c2 0 1.26-3 3.17-4.95-0.78 0-1.55 0.06-2.33 0.05-1.71 2.47-2.19 4.9-0.84 4.9z" fill="#fff" style="transform-origin:303.545px 391.045px"/>
<path class="animable" d="m306.51 393.36c2 0 1.48-3.53 3.46-5.59a13.38 13.38 0 0 1-1.37 0.4c-0.39 0.08-0.79 0.15-1.19 0.21-1.76 2.5-2.27 4.98-0.9 4.98z" fill="#fff" style="transform-origin:307.849px 390.565px"/>
<path class="animable" d="M326.32,386.59a2.78,2.78,0,0,0-1-1.63l-10.82-.27a9.24,9.24,0,0,1-4.49,3.08c-2,2.06-1.45,5.59-3.46,5.59-1.37,0-.86-2.48.9-5-.63.09-1.26.15-1.89.19-1.91,2-1.17,4.95-3.17,4.95-1.35,0-.87-2.43.84-4.9h-1.52c-.46,0-.92,0-1.38-.08-4,3.15-4.32,6.56-3.8,11.92a14.38,14.38,0,0,0,2.07.21,57.36,57.36,0,0,0,6.67-.47,47.53,47.53,0,0,1,10.73.27c2.39.34,4.81.85,7.19.46s4.55-1.72,5.24-3.16Z" fill="#455a64" style="transform-origin:312.384px 392.87px"/>
<path class="animable" d="m300.29 388.53a17.52 17.52 0 0 0-5.41 0 6.47 6.47 0 0 0-4.87 4.24 4.87 4.87 0 0 0-0.08 1.9 6.41 6.41 0 0 0 2.35 4 9.4 9.4 0 0 0 4.21 1.77c-0.49-5.35-0.18-8.76 3.8-11.91z" fill="#fff" style="transform-origin:295.081px 394.38px"/>
<path class="animable" d="M314.15,381.61v5.21a2.14,2.14,0,0,0,2.14,2.14h5.46a3.51,3.51,0,0,0,3.51-3.4l.13-3.95Z" fill="#ffa8a7" style="transform-origin:319.77px 385.285px"/>
<path class="animable" d="m350.2 379.29a4 4 0 0 1-3.28 2.3 7 7 0 0 1-4.16-1c-1.87-1.19-2.6-3.07-3.88-4.76a28.22 28.22 0 0 0-4.53-4.41 15 15 0 0 1-4.32-5 6.38 6.38 0 0 1-0.51-1.83 6.47 6.47 0 0 0 0.51 3.52 14.92 14.92 0 0 0 4.32 5 28.71 28.71 0 0 1 4.53 4.42c1.28 1.69 2 3.57 3.88 4.76a7 7 0 0 0 4.16 1 4 4 0 0 0 3.28-2.3 9.29 9.29 0 0 0 0.2-2.9 3.77 3.77 0 0 1-0.2 1.2z" fill="#263238" style="transform-origin:339.949px 373.95px"/>
<path class="animable" d="M337.91,367.85a1.29,1.29,0,0,0-.26.89.92.92,0,0,0,.59.68,1.3,1.3,0,0,0,1.21-.32,6.25,6.25,0,0,0,.85-1,6.25,6.25,0,0,1,2.78-2,6.33,6.33,0,0,1,1.66-.37l-1.35-1.23a6.74,6.74,0,0,0-2.46.6A6.88,6.88,0,0,0,337.91,367.85Z" fill="#fff" style="transform-origin:341.193px 366.979px"/>
<path class="animable" d="M338.2,363.55a6.88,6.88,0,0,0-3,2.78,1.37,1.37,0,0,0-.26.9.91.91,0,0,0,.59.67,1.28,1.28,0,0,0,1.21-.32,5.84,5.84,0,0,0,.85-1,6.27,6.27,0,0,1,5.52-2.39L341.75,363A6.86,6.86,0,0,0,338.2,363.55Z" fill="#fff" style="transform-origin:339.023px 365.449px"/>
<path class="animable" d="m340.89 362.2a14 14 0 0 0-4.24-2.84 5.66 5.66 0 0 0-5.84 0.81 5 5 0 0 0-1.29 4.38 6.38 6.38 0 0 0 0.51 1.83 9.8 9.8 0 0 0 1.34 2.13c0.52-4.66 4.57-6.84 9.52-6.31z" fill="#fff" style="transform-origin:335.161px 363.7px"/>
<path class="animable" d="M350.31,374.72a9.68,9.68,0,0,0-1.06-4.55l-2.63-2.76-1.88-1.71a6.33,6.33,0,0,0-1.66.37,6.25,6.25,0,0,0-2.78,2,6.25,6.25,0,0,1-.85,1,1.3,1.3,0,0,1-1.21.32.92.92,0,0,1-.59-.68,1.29,1.29,0,0,1,.26-.89,6.88,6.88,0,0,1,3-2.78,6.74,6.74,0,0,1,2.46-.6l-.3-.28a6.27,6.27,0,0,0-5.52,2.39,5.84,5.84,0,0,1-.85,1,1.28,1.28,0,0,1-1.21.32.91.91,0,0,1-.59-.67,1.37,1.37,0,0,1,.26-.9,6.71,6.71,0,0,1,6.57-3.36l-.05-.05-.81-.72c-4.95-.53-9,1.65-9.52,6.31a23.27,23.27,0,0,0,3,2.89,28.22,28.22,0,0,1,4.53,4.41c1.28,1.69,2,3.57,3.88,4.76a7,7,0,0,0,4.16,1,4,4,0,0,0,3.28-2.3,3.77,3.77,0,0,0,.2-1.21C350.45,376.86,350.34,375.2,350.31,374.72Z" fill="#455a64" style="transform-origin:340.881px 371.826px"/>
<path class="animable" d="M340.82,366.49l.31,5.59c3.53,2,7.24.93,8.47-.36l.24-5.23Z" fill="#ffa8a7" style="transform-origin:345.33px 369.839px"/>
<path class="animable" d="m347.77 245.59a5 5 0 0 1-0.53-1.92l-0.31-4.8-34.2 2.2c-0.45 2.39-0.91 5.33-1.36 8.66a50.82 50.82 0 0 0 36.4-4.14z" fill="#ffa8a7" style="transform-origin:329.57px 245.125px"/>
<path class="animable" d="m347.1 226.23 7.29 14.07-6.62 11.08 7.32 11.62 11.05-17.16a9.65 9.65 0 0 0 1.13-7.92 135.91 135.91 0 0 0-7.18-19.54z" fill="#ffa8a7" style="transform-origin:357.381px 240.69px"/>
<path class="animable" d="m341.31 199c8.39-1.56 13.18 1.23 20.26 20.2-2.89 6.49-15.17 8.88-15.17 8.88z" fill="#455a64" style="transform-origin:351.44px 213.356px"/>
<path class="animable" d="m341.31 199c8.39-1.56 13.18 1.23 20.26 20.2-2.89 6.49-15.17 8.88-15.17 8.88z" fill="#fff" opacity=".2" style="transform-origin:351.44px 213.356px"/>
<polygon class="animable" points="313.01 179.33 310.19 184.25 313.28 185.39" fill="#ff9192" style="transform-origin:311.735px 182.36px"/>
<path class="animable" d="M312.7,177.14c.45-4.31,1.71-8.37,4.52-10.43a23.22,23.22,0,0,0,3.23,15.42,6.7,6.7,0,0,1,2.09-3.69,3.86,3.86,0,0,1,4-.86,3.94,3.94,0,0,1,2,2.2,5.23,5.23,0,0,1-6.54,6.91,10.05,10.05,0,0,0,7.73,7.83,13,13,0,0,0,7.49-.71l1.17,5.8c-4.73,5-12.81,1.66-12.81,1.66l-1.06-5.72c-9.3.56-10.17.4-11.19-4.72A49.66,49.66,0,0,1,312.7,177.14Z" fill="#ffa8a7" style="transform-origin:325.439px 184.536px"/>
<path class="animable" d="M311.59,166.82a14.94,14.94,0,0,1,8.87-8.11,25.24,25.24,0,0,1,12.21-.93,22,22,0,0,1,7.29,2.15,12.35,12.35,0,0,1,5.39,5.36l.48-4a2.88,2.88,0,0,1,2.14,1.92,3.12,3.12,0,0,1-.73,2.91h.37a12.47,12.47,0,0,1,12.48,12.47v21.18a12.24,12.24,0,0,1-12.25-12.25V182.7a23,23,0,0,1-7,9.17,15.6,15.6,0,0,1-3.54,1.94,13,13,0,0,1-7.49.71,10.05,10.05,0,0,1-7.73-7.83,5.23,5.23,0,0,0,6.54-6.91,3.94,3.94,0,0,0-2-2.2,3.86,3.86,0,0,0-4,.86,6.7,6.7,0,0,0-2.09,3.69,23.22,23.22,0,0,1-3.23-15.42c-2.81,2.06-4.07,6.12-4.52,10.43A10.94,10.94,0,0,1,311.59,166.82Z" fill="#2dbdc3" style="transform-origin:335.45px 178.595px"/>
<path class="animable" d="M311.59,166.82a14.94,14.94,0,0,1,8.87-8.11,25.24,25.24,0,0,1,12.21-.93,22,22,0,0,1,7.29,2.15,12.35,12.35,0,0,1,5.39,5.36l.48-4a2.88,2.88,0,0,1,2.14,1.92,3.12,3.12,0,0,1-.73,2.91h.37a12.47,12.47,0,0,1,12.48,12.47v21.18a12.24,12.24,0,0,1-12.25-12.25V182.7a23,23,0,0,1-7,9.17,15.6,15.6,0,0,1-3.54,1.94,13,13,0,0,1-7.49.71,10.05,10.05,0,0,1-7.73-7.83,5.23,5.23,0,0,0,6.54-6.91,3.94,3.94,0,0,0-2-2.2,3.86,3.86,0,0,0-4,.86,6.7,6.7,0,0,0-2.09,3.69,23.22,23.22,0,0,1-3.23-15.42c-2.81,2.06-4.07,6.12-4.52,10.43A10.94,10.94,0,0,1,311.59,166.82Z" opacity=".4" style="transform-origin:335.45px 178.595px"/>
<path class="animable" d="M325.61,201.27l-9.15,1.8c-2,3.7-4.09,7.18-6.11,10.88-1.52,2.79-3.09,5.75-3,8.93a9.09,9.09,0,0,0,5.49,7.88l-1.06,12.5c14.37,4.39,31.94.53,35.8-2.79,1.14-5.24,2.14-10.81,3.27-16.05a53.85,53.85,0,0,0,1.55-10.31,18.21,18.21,0,0,0-2.41-10L350,204a11.19,11.19,0,0,0-11.23-4.83Z" fill="#455a64" style="transform-origin:329.884px 222.117px"/>
<path class="animable" d="M325.61,201.27l-9.15,1.8c-2,3.7-4.09,7.18-6.11,10.88-1.52,2.79-3.09,5.75-3,8.93a9.09,9.09,0,0,0,5.49,7.88l-1.06,12.5c14.37,4.39,31.94.53,35.8-2.79,1.14-5.24,2.14-10.81,3.27-16.05a53.85,53.85,0,0,0,1.55-10.31,18.21,18.21,0,0,0-2.41-10L350,204a11.19,11.19,0,0,0-11.23-4.83Z" fill="#fff" opacity=".3" style="transform-origin:329.884px 222.117px"/>
<path class="animable" d="m348.3 246.47a4.9 4.9 0 0 1-0.53-0.88 50.82 50.82 0 0 1-36.4 4.14c-2.58 19.19-4.79 51.68-3.43 73.12 1.13 24.95 5.72 60.29 5.72 60.29 6 1.79 10.48 0.7 12.18-0.6 2-24.76 6.39-41.72 3-58.09 2.27-11.45 3.73-25.82 3.73-25.82l1.73 25.28 5.86 44.45a10.49 10.49 0 0 0 10.51-0.53c4.26-25.42 5.86-42.64 2.13-55.26 5.68-41.71 5.97-52.38-4.5-66.1z" fill="#455a64" style="transform-origin:332.118px 314.835px"/>
<path class="animable" d="M335.08,293.63l3.14-13.17c3.66-.6,9.38-3,12.39-8a25.17,25.17,0,0,1-15.19,5.36l-2.86,20.83.61,8.9.25-3.24A67.34,67.34,0,0,1,335.08,293.63Z" opacity=".3" style="transform-origin:341.585px 290.005px"/>
<path class="animable" d="M292.51,203.94a74.82,74.82,0,0,1-14.18-1.56s-9.16-10.56-13.32-16.81a5.37,5.37,0,0,1-.88-2.55h0a5.31,5.31,0,0,1,0-1.32l1.38-8.69a4.86,4.86,0,0,0-1.35-4.21l-4.56-4.61a1.19,1.19,0,0,0-1.75,1.6l3.36,4-6.45,1.56a2.16,2.16,0,0,0-1.57,1.51l-.74,2.66a2.33,2.33,0,0,0,1.36,2.79l.87.37,0,.61a5.81,5.81,0,0,0,1.55,4.1c.26.78,1.22,2.8,1.22,2.8L266.74,210A9.51,9.51,0,0,0,274,216l15.75,2.75a13.89,13.89,0,0,0,2.79-14.78Z" fill="#ffa8a7" style="transform-origin:272.961px 191.313px"/>
<path class="animable" d="M315,202.9c-5.67.27-14.17,1.2-22.52,1a13.89,13.89,0,0,1-2.79,14.78l19.66,3.44a8.45,8.45,0,0,0,9.5-6.23c.61-2.49,1.27-4.58,1.65-7A5.28,5.28,0,0,0,315,202.9Z" fill="#455a64" style="transform-origin:305.119px 212.558px"/>
<path class="animable" d="M315,202.9c-5.67.27-14.17,1.2-22.52,1a13.89,13.89,0,0,1-2.79,14.78l19.66,3.44a8.45,8.45,0,0,0,9.5-6.23c.61-2.49,1.27-4.58,1.65-7A5.28,5.28,0,0,0,315,202.9Z" fill="#fff" opacity=".2" style="transform-origin:305.119px 212.558px"/>
</g>
</svg>
